<?xml version="1.0" standalone="no"?>
<!DOCTYPE svg PUBLIC "-//W3C//DTD SVG 20010904//EN"
 "http://www.w3.org/TR/2001/REC-SVG-20010904/DTD/svg10.dtd">
<svg version="1.0" xmlns="http://www.w3.org/2000/svg"
 width="216.000000pt" height="216.000000pt" viewBox="0 0 216.000000 216.000000"
 preserveAspectRatio="xMidYMid meet">
<metadata>
Created by potrace 1.11, written by Peter Selinger 2001-2013
</metadata>
<g transform="translate(0.000000,216.000000) scale(0.100000,-0.100000)"
fill="#000000" stroke="none">
<path d="M123 2138 c3 -13 11 -53 17 -90 6 -37 15 -80 20 -94 16 -40 74 -133
84 -134 25 -1 85 -63 93 -97 11 -46 -13 -251 -56 -493 -50 -274 -52 -298 -41
-453 5 -78 11 -185 14 -237 3 -52 8 -144 11 -205 4 -60 13 -133 22 -162 40
-135 194 -199 322 -133 49 25 105 88 121 136 14 41 8 368 -10 614 l-10 125 79
315 c43 173 85 329 91 345 13 29 13 29 27 -45 7 -41 29 -194 48 -340 37 -278
43 -305 82 -384 23 -45 366 -509 421 -568 38 -41 117 -72 184 -71 145 2 248
119 236 265 -6 68 -26 109 -90 184 -29 33 -69 80 -88 104 -52 65 -234 273
-253 289 -12 9 -17 29 -17 60 0 26 -7 101 -15 166 -28 225 -38 423 -23 471 7
24 20 46 29 49 11 4 15 13 12 25 -4 14 0 20 10 20 9 0 24 19 35 43 10 23 44
81 75 128 30 48 62 110 71 138 l15 51 -761 0 -760 0 5 -22z"/>
</g>
</svg>
